# xmcd CD database file
# Copyright (C) 1995-1998 Ti Kan
#
# Track frame offsets:
#	150
#	15575
#	46187
#	60216
#	78255
#	99944
#	117443
#
# Disc length: 1765 seconds
#
# Revision: 1
# Processed by: cddbd v1.5.1PL0 Copyright (c) Steve Scherf et al.
# Submitted via: CDex 1.30Release
#
DISCID=4306e307
DTITLE=Susan Tedeshi - Hope and Desire
DYEAR=1900
DGENRE=Blues
TTITLE0=Mr. Charlie
TTITLE1=Follow
TTITLE2=Magnificent Sanctuary Band
TTITLE3=Loving You Is Sweeter Than Ever
TTITLE4=Sweet Forgiveness
TTITLE5=Share Your Love
TTITLE6=Soul of a Man
EXTD=ID3G:   0
EXTT0=
EXTT1=
EXTT2=
EXTT3=
EXTT4=
EXTT5=
EXTT6=
PLAYORDER=
